<svg xmlns="http://www.w3.org/2000/svg" xmlns:xlink="http://www.w3.org/1999/xlink" width="200" zoomAndPan="magnify" viewBox="0 0 150 56.249996" height="75" preserveAspectRatio="xMidYMid meet" version="1.0"><defs><clipPath id="514a9186f9"><path d="M 0.988281 0 L 149.011719 0 L 149.011719 55.511719 L 0.988281 55.511719 Z M 0.988281 0 " clip-rule="nonzero"/></clipPath><clipPath id="c27044da1b"><path d="M 18.679688 5.550781 L 56 5.550781 L 56 49.957031 L 18.679688 49.957031 Z M 18.679688 5.550781 " clip-rule="nonzero"/></clipPath><clipPath id="fdadeb3f99"><path d="M 57 5.550781 L 109 5.550781 L 109 49.957031 L 57 49.957031 Z M 57 5.550781 " clip-rule="nonzero"/></clipPath><clipPath id="ea783e943a"><path d="M 96 5.550781 L 135.617188 5.550781 L 135.617188 49.957031 L 96 49.957031 Z M 96 5.550781 " clip-rule="nonzero"/></clipPath></defs><g clip-path="url(#514a9186f9)"><path fill="#ffffff" d="M 0.988281 0 L 149.011719 0 L 149.011719 62.910156 L 0.988281 62.910156 Z M 0.988281 0 " fill-opacity="1" fill-rule="nonzero"/><path fill="#ffffff" d="M 0.988281 0 L 149.011719 0 L 149.011719 55.511719 L 0.988281 55.511719 Z M 0.988281 0 " fill-opacity="1" fill-rule="nonzero"/><path fill="#ffffff" d="M 0.988281 0 L 149.011719 0 L 149.011719 55.511719 L 0.988281 55.511719 Z M 0.988281 0 " fill-opacity="1" fill-rule="nonzero"/></g><g clip-path="url(#c27044da1b)"><path fill="#ed7203" d="M 47.703125 26.726562 C 48.238281 26.414062 48.742188 26.0625 49.21875 25.664062 C 49.695312 25.269531 50.136719 24.839844 50.542969 24.371094 C 50.945312 23.90625 51.3125 23.40625 51.636719 22.882812 C 51.960938 22.355469 52.238281 21.804688 52.472656 21.234375 C 52.707031 20.660156 52.894531 20.074219 53.03125 19.46875 C 53.167969 18.867188 53.253906 18.257812 53.292969 17.640625 C 53.332031 17.023438 53.316406 16.410156 53.253906 15.792969 C 53.191406 15.179688 53.078125 14.574219 52.914062 13.976562 C 52.753906 13.382812 52.542969 12.800781 52.285156 12.238281 C 52.027344 11.679688 51.726562 11.140625 51.378906 10.628906 C 51.035156 10.113281 50.648438 9.632812 50.226562 9.183594 C 49.800781 8.734375 49.339844 8.320312 48.847656 7.945312 C 48.355469 7.570312 47.835938 7.238281 47.289062 6.949219 C 46.742188 6.65625 46.175781 6.414062 45.589844 6.214844 C 45.003906 6.015625 44.402344 5.867188 43.792969 5.769531 C 43.179688 5.667969 42.566406 5.617188 41.945312 5.617188 C 41.609375 5.617188 41.277344 5.617188 40.945312 5.671875 C 40.617188 5.722656 40.195312 5.625 39.722656 5.617188 L 18.679688 5.617188 L 18.679688 49.589844 L 44.109375 49.589844 C 44.804688 49.589844 45.492188 49.527344 46.175781 49.40625 C 46.855469 49.285156 47.523438 49.105469 48.171875 48.863281 C 48.824219 48.625 49.449219 48.328125 50.046875 47.976562 C 50.644531 47.628906 51.207031 47.226562 51.734375 46.777344 C 52.257812 46.328125 52.742188 45.835938 53.179688 45.300781 C 53.621094 44.765625 54.007812 44.195312 54.347656 43.589844 C 54.683594 42.988281 54.964844 42.359375 55.191406 41.703125 C 55.417969 41.050781 55.585938 40.382812 55.691406 39.699219 C 55.800781 39.015625 55.847656 38.328125 55.832031 37.636719 C 55.816406 36.945312 55.742188 36.261719 55.605469 35.582031 C 55.46875 34.90625 55.273438 34.242188 55.019531 33.601562 C 54.761719 32.957031 54.453125 32.339844 54.089844 31.75 C 53.726562 31.164062 53.3125 30.609375 52.851562 30.09375 C 52.390625 29.578125 51.886719 29.109375 51.339844 28.679688 C 50.796875 28.253906 50.214844 27.878906 49.605469 27.554688 C 48.992188 27.230469 48.355469 26.960938 47.695312 26.75 Z M 32.09375 14.410156 L 35.382812 14.410156 C 36.761719 14.339844 38.011719 14.695312 39.140625 15.484375 C 39.636719 15.875 40.019531 16.355469 40.285156 16.925781 C 40.546875 17.5 40.667969 18.101562 40.644531 18.730469 C 40.667969 19.359375 40.546875 19.960938 40.285156 20.535156 C 40.019531 21.109375 39.636719 21.589844 39.140625 21.984375 C 38.015625 22.773438 36.761719 23.128906 35.382812 23.046875 L 32.09375 23.046875 Z M 40.488281 39.148438 C 39.109375 40.023438 37.609375 40.414062 35.976562 40.324219 L 32.09375 40.324219 L 32.09375 30.8125 L 35.964844 30.8125 C 37.59375 30.722656 39.097656 31.117188 40.472656 31.988281 C 41.046875 32.410156 41.488281 32.9375 41.796875 33.574219 C 42.105469 34.214844 42.246094 34.886719 42.214844 35.59375 C 42.242188 36.296875 42.101562 36.96875 41.796875 37.601562 C 41.492188 38.234375 41.054688 38.761719 40.488281 39.179688 Z M 40.488281 39.148438 " fill-opacity="1" fill-rule="nonzero"/></g><g clip-path="url(#fdadeb3f99)"><path fill="#ed7203" d="M 108.945312 37.671875 L 91.519531 37.671875 L 91.519531 5.617188 L 77.050781 5.617188 L 77.050781 49.589844 L 93.53125 49.589844 L 105.765625 49.597656 L 108.945312 49.597656 Z M 72.4375 5.617188 L 57.96875 5.617188 L 57.96875 49.597656 L 72.4375 49.589844 Z M 72.4375 5.617188 " fill-opacity="1" fill-rule="nonzero"/></g><g clip-path="url(#ea783e943a)"><path fill="#ed7203" d="M 113.566406 5.609375 L 96.132812 5.609375 L 96.132812 33.0625 L 108.910156 33.0625 L 108.910156 18.773438 C 109.527344 18.613281 110.152344 18.515625 110.789062 18.480469 C 111.429688 18.445312 112.0625 18.46875 112.695312 18.558594 C 113.328125 18.648438 113.945312 18.800781 114.546875 19.011719 C 115.148438 19.222656 115.722656 19.492188 116.269531 19.816406 C 116.820312 20.144531 117.328125 20.519531 117.804688 20.945312 C 118.277344 21.375 118.703125 21.84375 119.082031 22.355469 C 119.464844 22.867188 119.789062 23.410156 120.0625 23.984375 C 120.332031 24.5625 120.546875 25.160156 120.699219 25.777344 C 120.851562 26.394531 120.941406 27.019531 120.972656 27.65625 C 121 28.292969 120.964844 28.925781 120.867188 29.554688 C 120.769531 30.183594 120.609375 30.796875 120.390625 31.394531 C 120.167969 31.992188 119.894531 32.5625 119.558594 33.105469 C 119.226562 33.648438 118.84375 34.152344 118.410156 34.621094 C 117.976562 35.085938 117.5 35.507812 116.980469 35.878906 C 116.464844 36.253906 115.914062 36.570312 115.335938 36.835938 C 114.753906 37.097656 114.152344 37.300781 113.53125 37.445312 L 113.53125 49.605469 C 114.246094 49.59375 114.957031 49.546875 115.664062 49.464844 C 116.375 49.382812 117.078125 49.265625 117.777344 49.113281 C 118.472656 48.964844 119.164062 48.78125 119.84375 48.5625 C 120.523438 48.347656 121.191406 48.097656 121.847656 47.816406 C 122.5 47.535156 123.140625 47.222656 123.765625 46.878906 C 124.394531 46.535156 125 46.160156 125.589844 45.757812 C 126.179688 45.355469 126.746094 44.925781 127.292969 44.46875 C 127.839844 44.011719 128.363281 43.53125 128.863281 43.019531 C 129.363281 42.511719 129.839844 41.980469 130.285156 41.429688 C 130.734375 40.875 131.15625 40.300781 131.546875 39.703125 C 131.941406 39.109375 132.304688 38.496094 132.636719 37.867188 C 132.96875 37.238281 133.269531 36.59375 133.542969 35.933594 C 133.8125 35.273438 134.046875 34.605469 134.253906 33.921875 C 134.457031 33.238281 134.628906 32.550781 134.765625 31.851562 C 134.90625 31.152344 135.007812 30.449219 135.078125 29.738281 C 135.148438 29.03125 135.179688 28.320312 135.179688 27.609375 C 135.179688 26.894531 135.148438 26.1875 135.078125 25.476562 C 135.007812 24.769531 134.90625 24.066406 134.765625 23.367188 C 134.628906 22.667969 134.457031 21.976562 134.253906 21.292969 C 134.046875 20.613281 133.8125 19.941406 133.542969 19.28125 C 133.269531 18.625 132.96875 17.980469 132.636719 17.347656 C 132.304688 16.71875 131.941406 16.105469 131.546875 15.511719 C 131.15625 14.917969 130.734375 14.34375 130.285156 13.789062 C 129.839844 13.234375 129.363281 12.703125 128.863281 12.195312 C 128.363281 11.6875 127.839844 11.203125 127.292969 10.746094 C 126.746094 10.289062 126.179688 9.859375 125.589844 9.457031 C 125 9.054688 124.394531 8.683594 123.765625 8.339844 C 123.140625 7.996094 122.5 7.683594 121.847656 7.402344 C 121.191406 7.117188 120.523438 6.871094 119.84375 6.652344 C 119.164062 6.4375 118.472656 6.253906 117.777344 6.101562 C 117.078125 5.953125 116.375 5.835938 115.664062 5.753906 C 114.957031 5.671875 114.246094 5.625 113.53125 5.609375 Z M 113.566406 5.609375 " fill-opacity="1" fill-rule="nonzero"/></g></svg>