<svg xmlns="http://www.w3.org/2000/svg" viewBox="0 0 155.6 96.6"><defs><style>.cls-1{fill:#ed7203}.cls-2{fill:#8c7d6b}</style></defs><path d="M38.71 28.31A15.12 15.12 0 0 0 31.05.15c-.45 0-.89 0-1.33.07s-1-.06-1.63-.07h-28v58.66h33.84a15.61 15.61 0 0 0 4.77-30.47zM17.94 11.88h4.38a8 8 0 0 1 5 1.43 5.27 5.27 0 0 1 2 4.33 5.29 5.29 0 0 1-2 4.34 7.88 7.88 0 0 1-5 1.42h-4.38zm11.17 33a10.15 10.15 0 0 1-6 1.57h-5.17V33.76h5.15a10.15 10.15 0 0 1 6 1.57 5.68 5.68 0 0 1 2.32 4.81 5.68 5.68 0 0 1-2.3 4.78z" class="cls-1" transform="translate(-.09 -.14)"/><path d="M120.11 42.77H96.92V.01H77.67v58.66H99.6l16.28.01h4.23V42.77zM71.53.01H52.28v58.67l19.25-.01V.01z" class="cls-1"/><path d="M126.35.14h-23.2v36.62h17V17.7a12.83 12.83 0 1 1 6.15 24.91v16.22a29.35 29.35 0 0 0 0-58.69z" class="cls-1" transform="translate(-.09 -.14)"/><path d="M19.39 73.06h3.76a5.53 5.53 0 0 1 2.59.59 4.33 4.33 0 0 1 1.75 1.64 5 5 0 0 1 0 4.8 4.4 4.4 0 0 1-1.75 1.64 5.52 5.52 0 0 1-2.59.58h-3.76zm3.71 8.41a4.52 4.52 0 0 0 2.13-.47 3.57 3.57 0 0 0 1.41-1.34 4.09 4.09 0 0 0 0-3.92 3.5 3.5 0 0 0-1.41-1.34 4.52 4.52 0 0 0-2.13-.48h-2.74v7.56zM36.42 79.13h-5.81a2.49 2.49 0 0 0 .83 1.75 2.77 2.77 0 0 0 1.9.67 3.08 3.08 0 0 0 1.19-.23 2.76 2.76 0 0 0 .94-.69l.53.61a3 3 0 0 1-1.16.85 4 4 0 0 1-1.53.29 3.78 3.78 0 0 1-1.89-.46 3.26 3.26 0 0 1-1.29-1.26 3.57 3.57 0 0 1-.46-1.82 3.7 3.7 0 0 1 .44-1.84 3.19 3.19 0 0 1 1.22-1.25 3.55 3.55 0 0 1 3.46 0A3.1 3.1 0 0 1 36 77a3.75 3.75 0 0 1 .43 1.83zm-5-2.37a2.45 2.45 0 0 0-.77 1.67h4.92a2.45 2.45 0 0 0-.77-1.67 2.36 2.36 0 0 0-1.7-.64 2.33 2.33 0 0 0-1.72.64zM38.86 82.13a3.34 3.34 0 0 1-1.21-.61l.42-.74a3.44 3.44 0 0 0 1.1.56 4.23 4.23 0 0 0 1.37.22 2.59 2.59 0 0 0 1.41-.3 1 1 0 0 0 .46-.84.79.79 0 0 0-.25-.6 1.84 1.84 0 0 0-.64-.33 9.42 9.42 0 0 0-1-.22 11.13 11.13 0 0 1-1.38-.27 2.11 2.11 0 0 1-.88-.56 1.58 1.58 0 0 1-.36-1.1 1.71 1.71 0 0 1 .73-1.43 3.26 3.26 0 0 1 2-.55 5.22 5.22 0 0 1 1.35.18 3.57 3.57 0 0 1 1.11.47l-.41.75a3.51 3.51 0 0 0-2.05-.59 2.42 2.42 0 0 0-1.36.31 1 1 0 0 0-.45.83.8.8 0 0 0 .26.64 1.58 1.58 0 0 0 .64.35c.25.07.61.15 1 .23a12.22 12.22 0 0 1 1.34.32 1.91 1.91 0 0 1 .86.54 1.5 1.5 0 0 1 .36 1.06 1.69 1.69 0 0 1-.76 1.44 3.6 3.6 0 0 1-2.11.54 5.09 5.09 0 0 1-1.55-.3zM51.39 79.13h-5.81a2.49 2.49 0 0 0 .83 1.75 2.79 2.79 0 0 0 1.9.67 3 3 0 0 0 1.19-.23 2.67 2.67 0 0 0 .94-.69l.53.61a2.92 2.92 0 0 1-1.16.85 4 4 0 0 1-1.52.29 3.79 3.79 0 0 1-1.9-.46 3.26 3.26 0 0 1-1.29-1.26 3.57 3.57 0 0 1-.46-1.82 3.81 3.81 0 0 1 .44-1.84 3.26 3.26 0 0 1 1.22-1.25 3.57 3.57 0 0 1 3.47 0A3.14 3.14 0 0 1 51 77a3.75 3.75 0 0 1 .44 1.83zm-5-2.37a2.5 2.5 0 0 0-.77 1.67h4.93a2.46 2.46 0 0 0-.78-1.67 2.55 2.55 0 0 0-3.38 0zM59.21 76.07a2.94 2.94 0 0 1 .79 2.21v4h-1v-3.9a2.32 2.32 0 0 0-.54-1.66 2 2 0 0 0-1.46-.56 2.4 2.4 0 0 0-1.78.66 2.52 2.52 0 0 0-.66 1.85v3.64h-.93v-7h.9v1.28a2.57 2.57 0 0 1 1.06-1 3.44 3.44 0 0 1 1.58-.35 2.83 2.83 0 0 1 2.04.83zM68.51 75.36l-3.1 7h-1l-3.08-7h1L65 81.28l2.63-5.92zM70.93 81.92a3.27 3.27 0 0 1-1.27-1.26 3.58 3.58 0 0 1-.47-1.82 3.61 3.61 0 0 1 .47-1.84 3.32 3.32 0 0 1 1.27-1.25 3.87 3.87 0 0 1 3.62 0A3.36 3.36 0 0 1 75.81 77a3.7 3.7 0 0 1 .45 1.83 3.67 3.67 0 0 1-.45 1.82 3.31 3.31 0 0 1-1.26 1.26 3.79 3.79 0 0 1-3.62 0zm3.13-.71a2.25 2.25 0 0 0 .92-1 2.94 2.94 0 0 0 .33-1.41 3 3 0 0 0-.31-1.38 2.28 2.28 0 0 0-.92-1 2.75 2.75 0 0 0-2.65 0 2.43 2.43 0 0 0-.93 1 3 3 0 0 0-.33 1.42 2.94 2.94 0 0 0 .33 1.41 2.39 2.39 0 0 0 .93 1 2.75 2.75 0 0 0 2.65 0zM78.44 72.51h.94v9.8h-.94zM88.11 75.36l-3.1 7h-1l-3.08-7h1l2.6 5.92 2.63-5.92zM89.68 73.64a.65.65 0 0 1-.2-.47.68.68 0 0 1 .69-.66.69.69 0 0 1 .49.19.62.62 0 0 1 .19.46.65.65 0 0 1-.19.48.66.66 0 0 1-.49.2.63.63 0 0 1-.49-.2zm0 1.72h.94v7h-.94zM104.24 76.06a3.05 3.05 0 0 1 .74 2.22v4H104v-3.9a2.36 2.36 0 0 0-.52-1.66 1.89 1.89 0 0 0-1.47-.56 2.25 2.25 0 0 0-1.71.66 2.63 2.63 0 0 0-.62 1.85v3.64h-.94v-3.93a2.36 2.36 0 0 0-.52-1.66 1.9 1.9 0 0 0-1.48-.56 2.23 2.23 0 0 0-1.7.66 2.59 2.59 0 0 0-.63 1.85v3.64h-.94v-7h.9v1.27a2.56 2.56 0 0 1 1-1 3.24 3.24 0 0 1 1.63-.27 2.91 2.91 0 0 1 1.51.37 2.26 2.26 0 0 1 1 1.1 2.69 2.69 0 0 1 1.11-1.08 3.37 3.37 0 0 1 1.64-.39 2.79 2.79 0 0 1 1.98.75zM113.88 79.13h-5.82a2.49 2.49 0 0 0 .83 1.75 2.81 2.81 0 0 0 1.91.67 3.11 3.11 0 0 0 1.19-.23 2.63 2.63 0 0 0 .93-.69l.53.61a3 3 0 0 1-1.15.85 4 4 0 0 1-1.53.29 3.82 3.82 0 0 1-1.9-.46 3.26 3.26 0 0 1-1.29-1.26 3.89 3.89 0 0 1 0-3.65 3.23 3.23 0 0 1 1.21-1.25 3.42 3.42 0 0 1 1.74-.45 3.36 3.36 0 0 1 1.73.45 3.14 3.14 0 0 1 1.2 1.25 3.75 3.75 0 0 1 .44 1.83zm-5-2.37a2.5 2.5 0 0 0-.77 1.67H113a2.5 2.5 0 0 0-.77-1.67 2.56 2.56 0 0 0-3.39 0zM121.69 76.07a3 3 0 0 1 .78 2.21v4h-.94v-3.9a2.32 2.32 0 0 0-.54-1.66 2 2 0 0 0-1.55-.56 2.4 2.4 0 0 0-1.78.66 2.56 2.56 0 0 0-.65 1.85v3.64h-.94v-7h.9v1.28a2.57 2.57 0 0 1 1.06-1 3.47 3.47 0 0 1 1.58-.35 2.82 2.82 0 0 1 2.08.83zM128.94 81.89a1.71 1.71 0 0 1-.65.36 2.47 2.47 0 0 1-.82.13 1.84 1.84 0 0 1-2-2v-4.2h-1.27v-.8h1.24v-1.54h.94v1.52h2.11v.8h-2.11v4.14a1.31 1.31 0 0 0 .31 1 1.16 1.16 0 0 0 .89.32 1.77 1.77 0 0 0 .56-.09 1.43 1.43 0 0 0 .47-.26zM131.69 81.92a3.27 3.27 0 0 1-1.27-1.26 3.57 3.57 0 0 1-.46-1.82 3.61 3.61 0 0 1 .46-1.83 3.32 3.32 0 0 1 1.27-1.25 3.87 3.87 0 0 1 3.62 0 3.22 3.22 0 0 1 1.26 1.24 3.61 3.61 0 0 1 .46 1.83 3.57 3.57 0 0 1-.46 1.82 3.18 3.18 0 0 1-1.26 1.26 3.79 3.79 0 0 1-3.62 0zm3.14-.71a2.31 2.31 0 0 0 .92-1 2.94 2.94 0 0 0 .33-1.41 3 3 0 0 0-.33-1.42 2.34 2.34 0 0 0-.92-1 2.77 2.77 0 0 0-2.66 0 2.34 2.34 0 0 0-.92 1 2.9 2.9 0 0 0-.34 1.42 2.83 2.83 0 0 0 .34 1.41 2.31 2.31 0 0 0 .92 1 2.77 2.77 0 0 0 2.66 0zM42.55 87.43h1v9.25h-1zM57.33 90.43a3 3 0 0 1 .75 2.22v4h-.94v-3.91a2.35 2.35 0 0 0-.52-1.65 1.9 1.9 0 0 0-1.47-.57 2.21 2.21 0 0 0-1.71.67 2.61 2.61 0 0 0-.62 1.81v3.65h-.94v-3.91a2.35 2.35 0 0 0-.52-1.65 1.91 1.91 0 0 0-1.49-.57 2.18 2.18 0 0 0-1.69.67 2.57 2.57 0 0 0-.63 1.81v3.65h-.94v-7h.9V91a2.44 2.44 0 0 1 1-1 3.24 3.24 0 0 1 1.52-.35 3 3 0 0 1 1.51.37 2.3 2.3 0 0 1 1 1.1 2.72 2.72 0 0 1 1.1-1.08 3.41 3.41 0 0 1 1.65-.39 2.75 2.75 0 0 1 2.04.78zM62 96.29A3.34 3.34 0 0 1 60.68 95a3.61 3.61 0 0 1-.46-1.83 3.57 3.57 0 0 1 .46-1.82A3.27 3.27 0 0 1 62 90.12a3.87 3.87 0 0 1 3.62 0 3.18 3.18 0 0 1 1.26 1.26 3.57 3.57 0 0 1 .46 1.82 3.61 3.61 0 0 1-.51 1.8 3.25 3.25 0 0 1-1.26 1.26 3.79 3.79 0 0 1-3.62 0zm3.14-.71a2.43 2.43 0 0 0 .92-1 3 3 0 0 0 .33-1.42 2.94 2.94 0 0 0-.39-1.37 2.43 2.43 0 0 0-.92-1 2.66 2.66 0 0 0-1.33-.34 2.71 2.71 0 0 0-1.33.34 2.43 2.43 0 0 0-.92 1 2.83 2.83 0 0 0-.34 1.41 2.9 2.9 0 0 0 .34 1.42 2.43 2.43 0 0 0 .92 1 2.7 2.7 0 0 0 1.33.33 2.65 2.65 0 0 0 1.34-.37zM74.82 90.12a3.13 3.13 0 0 1 1.25 1.25 3.68 3.68 0 0 1 .45 1.83 3.72 3.72 0 0 1-.45 1.8 3.22 3.22 0 0 1-1.25 1.26 3.58 3.58 0 0 1-1.77.45 3.33 3.33 0 0 1-1.56-.37 2.83 2.83 0 0 1-1.12-1.08v1.38h-.9v-9.77h.94v4.18a2.91 2.91 0 0 1 1.12-1 3.3 3.3 0 0 1 1.52-.35 3.48 3.48 0 0 1 1.77.42zm-.51 5.46a2.39 2.39 0 0 0 .93-1 2.9 2.9 0 0 0 .34-1.42 2.83 2.83 0 0 0-.34-1.41 2.39 2.39 0 0 0-.93-1 2.7 2.7 0 0 0-1.31-.26 2.66 2.66 0 0 0-1.33.34 2.52 2.52 0 0 0-.93 1 2.94 2.94 0 0 0-.33 1.41 3 3 0 0 0 .33 1.42 2.52 2.52 0 0 0 .93 1 2.65 2.65 0 0 0 1.33.33 2.69 2.69 0 0 0 1.31-.41zM78.68 88a.66.66 0 0 1-.2-.48.65.65 0 0 1 .2-.46.68.68 0 0 1 .49-.2.7.7 0 0 1 .49.19.63.63 0 0 1 .2.46.68.68 0 0 1-.2.49.66.66 0 0 1-.49.2.68.68 0 0 1-.49-.2zm0 1.72h.93v7h-.91zM82.52 86.87h.93v9.81h-.93zM86.32 88a.66.66 0 0 1-.2-.48.65.65 0 0 1 .2-.46.68.68 0 0 1 .49-.2.71.71 0 0 1 .49.19.63.63 0 0 1 .2.46.69.69 0 0 1-1.18.49zm0 1.72h.94v7h-.94zM94.67 90.36a2.59 2.59 0 0 1 .73 2v4.31h-.9v-1.08a2.08 2.08 0 0 1-.93.85 3.31 3.31 0 0 1-1.46.31 2.86 2.86 0 0 1-1.85-.56 1.9 1.9 0 0 1-.05-2.89 3.1 3.1 0 0 1 2.05-.55h2.2v-.42A1.81 1.81 0 0 0 94 91a2.09 2.09 0 0 0-1.47-.47 3.9 3.9 0 0 0-1.27.22 3.42 3.42 0 0 0-1 .6l-.42-.7a3.61 3.61 0 0 1 1.16-.73 5 5 0 0 1 1.56-.25 2.9 2.9 0 0 1 2.11.69zm-1 5.28a2.11 2.11 0 0 0 .84-1v-1.19h-2.23c-1.19 0-1.78.42-1.78 1.25a1.12 1.12 0 0 0 .46 1 2.07 2.07 0 0 0 1.3.35 2.51 2.51 0 0 0 1.36-.41zM93.56 87h1.26l-2.14 1.64h-.93zM100.1 90a3.29 3.29 0 0 1 1.62-.36v.92h-.23a2.24 2.24 0 0 0-1.72.68 2.71 2.71 0 0 0-.62 1.89v3.54h-.93v-7h.89v1.36a2.27 2.27 0 0 1 .99-1.03zM103.66 88a.66.66 0 0 1-.2-.48.65.65 0 0 1 .2-.46.68.68 0 0 1 .49-.2.71.71 0 0 1 .49.19.63.63 0 0 1 .2.46.69.69 0 0 1-1.18.49zm0 1.72h.94v7h-.94zM108.52 96.29a3.41 3.41 0 0 1-1.27-1.29 3.71 3.71 0 0 1-.46-1.83 3.67 3.67 0 0 1 .46-1.82 3.34 3.34 0 0 1 1.27-1.26 3.87 3.87 0 0 1 3.62 0 3.27 3.27 0 0 1 1.27 1.26 3.67 3.67 0 0 1 .45 1.82 3.7 3.7 0 0 1-.45 1.83 3.34 3.34 0 0 1-1.27 1.26 3.79 3.79 0 0 1-3.62 0zm3.14-.71a2.43 2.43 0 0 0 .92-1 3 3 0 0 0 .33-1.42 2.94 2.94 0 0 0-.33-1.41 2.43 2.43 0 0 0-.92-1 2.75 2.75 0 0 0-2.65 0 2.45 2.45 0 0 0-.93 1 2.94 2.94 0 0 0-.34 1.41 3 3 0 0 0 .34 1.42 2.45 2.45 0 0 0 .93 1 2.83 2.83 0 0 0 2.65 0z" class="cls-2" transform="translate(-.09 -.14)"/></svg>
