<svg xmlns="http://www.w3.org/2000/svg" xmlns:xlink="http://www.w3.org/1999/xlink" width="750" zoomAndPan="magnify" viewBox="0 0 562.5 112.499997" height="150" preserveAspectRatio="xMidYMid meet" version="1.0"><defs><clipPath id="96acdc6b0f"><path d="M 0.996094 0 L 561.007812 0 L 561.007812 112.003906 L 0.996094 112.003906 Z M 0.996094 0 " clip-rule="nonzero"/></clipPath><clipPath id="d056c21a08"><path d="M 214.921875 31.140625 L 258 31.140625 L 258 81.214844 L 214.921875 81.214844 Z M 214.921875 31.140625 " clip-rule="nonzero"/></clipPath><clipPath id="d2c9468b96"><path d="M 259 31.140625 L 318 31.140625 L 318 81.214844 L 259 81.214844 Z M 259 31.140625 " clip-rule="nonzero"/></clipPath><clipPath id="0c2d7282a6"><path d="M 303 31.140625 L 347.949219 31.140625 L 347.949219 81.214844 L 303 81.214844 Z M 303 31.140625 " clip-rule="nonzero"/></clipPath></defs><g clip-path="url(#96acdc6b0f)"><path fill="#ffffff" d="M 0.996094 0 L 561.503906 0 L 561.503906 118.828125 L 0.996094 118.828125 Z M 0.996094 0 " fill-opacity="1" fill-rule="nonzero"/><path fill="#ffffff" d="M 0.996094 0 L 561.503906 0 L 561.503906 112.101562 L 0.996094 112.101562 Z M 0.996094 0 " fill-opacity="1" fill-rule="nonzero"/><path fill="#ffffff" d="M 0.996094 0 L 561.503906 0 L 561.503906 112.101562 L 0.996094 112.101562 Z M 0.996094 0 " fill-opacity="1" fill-rule="nonzero"/></g><g clip-path="url(#d056c21a08)"><path fill="#ed7203" d="M 247.9375 55.140625 C 248.546875 54.785156 249.121094 54.382812 249.664062 53.9375 C 250.207031 53.488281 250.707031 53 251.167969 52.46875 C 251.628906 51.941406 252.042969 51.375 252.414062 50.78125 C 252.78125 50.183594 253.097656 49.558594 253.367188 48.910156 C 253.632812 48.261719 253.84375 47.597656 254 46.914062 C 254.15625 46.230469 254.257812 45.539062 254.300781 44.839844 C 254.339844 44.140625 254.328125 43.441406 254.253906 42.746094 C 254.183594 42.050781 254.054688 41.363281 253.871094 40.6875 C 253.683594 40.011719 253.445312 39.355469 253.152344 38.71875 C 252.859375 38.078125 252.515625 37.46875 252.121094 36.890625 C 251.730469 36.308594 251.292969 35.761719 250.808594 35.253906 C 250.324219 34.742188 249.804688 34.273438 249.242188 33.847656 C 248.683594 33.425781 248.09375 33.046875 247.46875 32.71875 C 246.847656 32.386719 246.203125 32.113281 245.535156 31.886719 C 244.867188 31.664062 244.1875 31.492188 243.492188 31.378906 C 242.796875 31.265625 242.09375 31.210938 241.390625 31.210938 C 241.003906 31.210938 240.628906 31.210938 240.253906 31.269531 C 239.878906 31.328125 239.398438 31.21875 238.859375 31.210938 L 214.921875 31.210938 L 214.921875 81.058594 L 243.851562 81.058594 C 244.640625 81.058594 245.425781 80.988281 246.199219 80.847656 C 246.976562 80.710938 247.734375 80.503906 248.476562 80.234375 C 249.214844 79.960938 249.925781 79.625 250.605469 79.230469 C 251.285156 78.832031 251.925781 78.378906 252.523438 77.867188 C 253.121094 77.359375 253.671875 76.800781 254.171875 76.195312 C 254.671875 75.585938 255.113281 74.941406 255.496094 74.257812 C 255.882812 73.570312 256.203125 72.859375 256.460938 72.117188 C 256.71875 71.375 256.90625 70.617188 257.027344 69.84375 C 257.152344 69.070312 257.203125 68.289062 257.1875 67.507812 C 257.167969 66.722656 257.082031 65.945312 256.925781 65.179688 C 256.773438 64.410156 256.550781 63.660156 256.261719 62.929688 C 255.972656 62.199219 255.621094 61.503906 255.207031 60.835938 C 254.792969 60.167969 254.324219 59.542969 253.796875 58.957031 C 253.273438 58.371094 252.699219 57.835938 252.078125 57.355469 C 251.457031 56.871094 250.796875 56.445312 250.101562 56.078125 C 249.40625 55.710938 248.679688 55.40625 247.929688 55.164062 Z M 230.183594 41.179688 L 233.925781 41.179688 C 235.492188 41.097656 236.917969 41.5 238.203125 42.394531 C 238.765625 42.835938 239.199219 43.382812 239.5 44.03125 C 239.800781 44.679688 239.9375 45.359375 239.910156 46.074219 C 239.9375 46.789062 239.800781 47.46875 239.5 48.121094 C 239.199219 48.769531 238.765625 49.316406 238.203125 49.761719 C 236.917969 50.65625 235.492188 51.058594 233.925781 50.96875 L 230.183594 50.96875 Z M 239.730469 69.21875 C 238.164062 70.210938 236.457031 70.65625 234.601562 70.554688 L 230.183594 70.554688 L 230.183594 59.769531 L 234.585938 59.769531 C 236.4375 59.671875 238.148438 60.113281 239.714844 61.105469 C 240.367188 61.578125 240.867188 62.179688 241.21875 62.902344 C 241.570312 63.625 241.730469 64.390625 241.699219 65.191406 C 241.726562 65.988281 241.570312 66.746094 241.222656 67.464844 C 240.875 68.183594 240.378906 68.78125 239.730469 69.253906 Z M 239.730469 69.21875 " fill-opacity="1" fill-rule="nonzero"/></g><g clip-path="url(#d2c9468b96)"><path fill="#ed7203" d="M 317.609375 67.546875 L 297.78125 67.546875 L 297.78125 31.210938 L 281.324219 31.210938 L 281.324219 81.058594 L 300.074219 81.058594 L 313.992188 81.066406 L 317.609375 81.066406 Z M 276.074219 31.210938 L 259.617188 31.210938 L 259.617188 81.066406 L 276.074219 81.058594 Z M 276.074219 31.210938 " fill-opacity="1" fill-rule="nonzero"/></g><g clip-path="url(#0c2d7282a6)"><path fill="#ed7203" d="M 322.867188 31.203125 L 303.03125 31.203125 L 303.03125 62.320312 L 317.566406 62.320312 L 317.566406 46.125 C 318.265625 45.941406 318.980469 45.832031 319.707031 45.789062 C 320.429688 45.75 321.152344 45.777344 321.871094 45.878906 C 322.589844 45.980469 323.292969 46.152344 323.976562 46.394531 C 324.660156 46.632812 325.316406 46.9375 325.941406 47.308594 C 326.5625 47.675781 327.144531 48.101562 327.683594 48.585938 C 328.222656 49.070312 328.707031 49.601562 329.140625 50.183594 C 329.574219 50.761719 329.941406 51.378906 330.253906 52.03125 C 330.5625 52.683594 330.804688 53.359375 330.976562 54.0625 C 331.152344 54.761719 331.253906 55.472656 331.285156 56.195312 C 331.316406 56.914062 331.277344 57.632812 331.167969 58.34375 C 331.054688 59.058594 330.875 59.753906 330.625 60.429688 C 330.375 61.109375 330.0625 61.753906 329.679688 62.371094 C 329.300781 62.984375 328.867188 63.558594 328.371094 64.085938 C 327.878906 64.617188 327.335938 65.089844 326.75 65.515625 C 326.160156 65.9375 325.535156 66.296875 324.875 66.597656 C 324.214844 66.894531 323.53125 67.128906 322.824219 67.292969 L 322.824219 81.074219 C 323.632812 81.058594 324.445312 81.003906 325.25 80.914062 C 326.058594 80.820312 326.859375 80.6875 327.652344 80.515625 C 328.445312 80.347656 329.230469 80.140625 330.003906 79.894531 C 330.777344 79.648438 331.535156 79.363281 332.28125 79.046875 C 333.027344 78.726562 333.757812 78.371094 334.46875 77.984375 C 335.179688 77.59375 335.871094 77.171875 336.539062 76.714844 C 337.210938 76.257812 337.855469 75.769531 338.476562 75.25 C 339.101562 74.734375 339.695312 74.1875 340.265625 73.609375 C 340.835938 73.035156 341.375 72.433594 341.882812 71.804688 C 342.394531 71.175781 342.871094 70.523438 343.320312 69.851562 C 343.765625 69.175781 344.179688 68.480469 344.558594 67.769531 C 344.933594 67.054688 345.277344 66.324219 345.585938 65.574219 C 345.894531 64.828125 346.164062 64.070312 346.394531 63.296875 C 346.628906 62.523438 346.824219 61.738281 346.980469 60.949219 C 347.136719 60.15625 347.253906 59.359375 347.332031 58.554688 C 347.414062 57.75 347.453125 56.945312 347.453125 56.136719 C 347.453125 55.332031 347.414062 54.527344 347.332031 53.722656 C 347.253906 52.917969 347.136719 52.121094 346.980469 51.328125 C 346.824219 50.535156 346.628906 49.753906 346.394531 48.980469 C 346.164062 48.207031 345.894531 47.449219 345.585938 46.699219 C 345.277344 45.953125 344.933594 45.222656 344.558594 44.507812 C 344.179688 43.792969 343.765625 43.101562 343.320312 42.425781 C 342.871094 41.75 342.394531 41.101562 341.882812 40.472656 C 341.375 39.84375 340.835938 39.242188 340.265625 38.667969 C 339.695312 38.089844 339.101562 37.542969 338.476562 37.023438 C 337.855469 36.507812 337.210938 36.019531 336.539062 35.5625 C 335.871094 35.105469 335.179688 34.683594 334.46875 34.292969 C 333.757812 33.902344 333.027344 33.550781 332.28125 33.230469 C 331.535156 32.910156 330.777344 32.628906 330.003906 32.382812 C 329.230469 32.136719 328.445312 31.929688 327.652344 31.757812 C 326.859375 31.589844 326.058594 31.457031 325.25 31.363281 C 324.445312 31.269531 323.632812 31.21875 322.824219 31.203125 Z M 322.867188 31.203125 " fill-opacity="1" fill-rule="nonzero"/></g></svg>