<svg xmlns="http://www.w3.org/2000/svg" xmlns:xlink="http://www.w3.org/1999/xlink" width="500" zoomAndPan="magnify" viewBox="0 0 375 374.999991" height="500" preserveAspectRatio="xMidYMid meet" version="1.0"><path fill="#ffc107" d="M 211.160156 354.574219 C 178.332031 354.574219 148.726562 347.335938 122.3125 332.824219 C 95.898438 318.234375 75.1875 298.097656 60.179688 272.371094 C 45.171875 246.683594 37.667969 217.886719 37.667969 185.972656 C 37.667969 154.097656 45.171875 125.296875 60.179688 99.574219 C 75.1875 73.773438 95.9375 53.636719 122.464844 39.121094 C 149.066406 24.535156 178.78125 17.222656 211.613281 17.222656 C 236.300781 17.222656 259.074219 21.386719 279.898438 29.671875 C 300.683594 37.886719 318.394531 49.886719 333.027344 65.671875 L 310.664062 87.871094 C 284.738281 61.699219 252.058594 48.574219 212.664062 48.574219 C 186.324219 48.574219 162.421875 54.574219 140.921875 66.574219 C 119.5 78.574219 102.691406 95.035156 90.496094 115.921875 C 78.378906 136.734375 72.335938 160.097656 72.335938 185.972656 C 72.335938 211.886719 78.378906 235.285156 90.496094 256.171875 C 102.691406 276.984375 119.5 293.371094 140.921875 305.371094 C 162.421875 317.371094 186.324219 323.371094 212.664062 323.371094 C 252.359375 323.371094 285.039062 310.097656 310.664062 283.472656 L 333.027344 305.824219 C 318.394531 321.648438 300.609375 333.722656 279.597656 342.121094 C 258.585938 350.449219 235.773438 354.574219 211.160156 354.574219 Z M 211.160156 354.574219 " fill-opacity="1" fill-rule="nonzero"/><path fill="#ffffff" d="M 288.925781 263.214844 C 274.894531 263.214844 267.914062 261.636719 267.914062 258.414062 L 262.960938 163.464844 L 233.996094 259.613281 C 233.394531 261.527344 227.992188 262.464844 217.785156 262.464844 C 207.65625 262.464844 202.480469 261.5625 202.179688 259.761719 L 172.3125 162.5625 L 169.011719 257.0625 C 168.898438 259.386719 165.894531 260.964844 160.003906 261.863281 C 154.191406 262.761719 149.351562 263.214844 145.449219 263.214844 C 141.546875 263.214844 137.792969 262.949219 134.191406 262.464844 C 126.574219 261.375 122.859375 259.386719 123.085938 256.464844 L 128.488281 102.5625 C 128.488281 98.777344 138.132812 96.863281 157.453125 96.863281 C 163.15625 96.863281 170.097656 97.3125 178.316406 98.214844 C 186.496094 99.039062 191.074219 100.726562 191.972656 103.3125 L 218.539062 177.863281 L 241.800781 103.011719 C 243.1875 98.925781 254.105469 96.863281 274.515625 96.863281 C 280.296875 96.863281 287.273438 97.3125 295.378906 98.214844 C 303.558594 99.039062 307.683594 100.574219 307.683594 102.863281 L 314.589844 258.113281 C 314.589844 259.914062 311.476562 261.226562 305.285156 262.011719 C 299.167969 262.839844 293.726562 263.214844 288.925781 263.214844 Z M 288.925781 263.214844 " fill-opacity="1" fill-rule="nonzero"/></svg>