<svg xmlns="http://www.w3.org/2000/svg" width="178.369" height="51.992" viewBox="0 0 178.369 51.992"><defs><style>.a{fill:#1a1818;}</style></defs><g transform="translate(-73.377 -687.22)"><path class="a" d="M244.9,738.316h6.85v-7.684h-2.3a1.4,1.4,0,0,1-1.057-.543,1.689,1.689,0,0,1-.48-1.121V714.755a12.167,12.167,0,0,0-.929-4.93,10.113,10.113,0,0,0-6.242-5.73,14.514,14.514,0,0,0-4.673-.736,9.453,9.453,0,0,0-3.553.608,10.385,10.385,0,0,0-2.593,1.473,10.128,10.128,0,0,0-1.794,1.792q-.7.929-1.152,1.569a25.977,25.977,0,0,0-1.761-2.369,7.933,7.933,0,0,0-1.984-1.7,9.313,9.313,0,0,0-2.5-1.024,13.187,13.187,0,0,0-3.233-.352,9.6,9.6,0,0,0-3.906.736,11.9,11.9,0,0,0-2.88,1.761,9.654,9.654,0,0,0-1.953,2.176q-.738,1.154-1.185,1.985v-1.472a3.207,3.207,0,0,0-.416-1.537,5.592,5.592,0,0,0-2.5-2.369,3.61,3.61,0,0,0-1.569-.384h-7.81v7.683h2.048a1.681,1.681,0,0,1,1.217.608,1.821,1.821,0,0,1,.576,1.248v15.238a1.465,1.465,0,0,1-.576,1.089,1.741,1.741,0,0,1-1.153.511h-3.776a1.4,1.4,0,0,1-1.057-.543,1.689,1.689,0,0,1-.48-1.121V714.755a12.167,12.167,0,0,0-.929-4.93,10.118,10.118,0,0,0-6.243-5.73,14.51,14.51,0,0,0-4.673-.736,9.457,9.457,0,0,0-3.553.608,10.377,10.377,0,0,0-2.592,1.473,10.128,10.128,0,0,0-1.794,1.792q-.7.929-1.152,1.569a26.359,26.359,0,0,0-1.76-2.369,7.943,7.943,0,0,0-1.986-1.7,9.306,9.306,0,0,0-2.5-1.024,13.192,13.192,0,0,0-3.233-.352,9.6,9.6,0,0,0-3.906.736,11.911,11.911,0,0,0-2.881,1.761,9.673,9.673,0,0,0-1.952,2.176q-.738,1.154-1.185,1.985v-1.472a3.207,3.207,0,0,0-.416-1.537,5.606,5.606,0,0,0-2.5-2.369,3.617,3.617,0,0,0-1.569-.384h-7.811v7.683H141.5a1.679,1.679,0,0,1,1.216.608,1.818,1.818,0,0,1,.577,1.248v15.238a1.463,1.463,0,0,1-.577,1.089,1.741,1.741,0,0,1-1.152.511h-3.329a1.977,1.977,0,0,1-1.857-1.856V710.145a5.868,5.868,0,0,0-1.568-4.29,4.929,4.929,0,0,0-3.618-1.6h-7.619v7.683h2.241a1.446,1.446,0,0,1,1.089.608,1.868,1.868,0,0,1,.512,1.184v10.18a9.141,9.141,0,0,1-.673,3.778,6.892,6.892,0,0,1-1.7,2.369A5.843,5.843,0,0,1,122.8,731.3a8.254,8.254,0,0,1-2.305.352,8.8,8.8,0,0,1-2.081-.256,4.511,4.511,0,0,1-3.234-2.817,8.372,8.372,0,0,1-.511-3.2V710.017a6.631,6.631,0,0,0-.289-1.921,5.534,5.534,0,0,0-.928-1.792,5.212,5.212,0,0,0-3.777-2.049H80.419a6.072,6.072,0,0,0-2.081.384A6.549,6.549,0,0,0,76.45,705.7a5.227,5.227,0,0,0-1.344,1.632,4.4,4.4,0,0,0-.513,2.113v5.826h7.683v-1.856a1.717,1.717,0,0,1,.832-1.377,2.74,2.74,0,0,1,1.6-.608h6.146L73.377,731.337v6.979H96.105a5.518,5.518,0,0,0,2.5-.608,7.809,7.809,0,0,0,2.145-1.57,8.271,8.271,0,0,0,1.5-2.144,5.308,5.308,0,0,0,.575-2.337v-4.545H95.145v1.6a2,2,0,0,1-.8,1.569,2.605,2.605,0,0,1-1.7.672H84.965L101.9,711.938h2.206a1.465,1.465,0,0,1,1.088.576,1.75,1.75,0,0,1,.512,1.152v13a16.432,16.432,0,0,0,.865,5.634,10.512,10.512,0,0,0,2.4,3.906,9.468,9.468,0,0,0,3.681,2.273,14.229,14.229,0,0,0,4.642.736,11.671,11.671,0,0,0,6.434-1.825,10.09,10.09,0,0,0,4.066-4.961v1.344a3.835,3.835,0,0,0,.543,2.081,4.892,4.892,0,0,0,1.313,1.408,5.589,5.589,0,0,0,1.6.8,4.931,4.931,0,0,0,1.409.256h13a5.7,5.7,0,0,0,2.273-.513,7.818,7.818,0,0,0,2.145-1.376,7.6,7.6,0,0,0,1.569-1.953,4.428,4.428,0,0,0,.608-2.177V717.572a11.383,11.383,0,0,1,.288-2.625,5.978,5.978,0,0,1,.928-2.113,4.412,4.412,0,0,1,1.7-1.408,7.329,7.329,0,0,1,5.762.16,3.933,3.933,0,0,1,1.6,1.7,6.422,6.422,0,0,1,.576,2.24q.1,1.216.1,2.3v20.488h8.962V717.892a8.719,8.719,0,0,1,1.345-4.994q1.346-1.983,4.738-1.985a4.633,4.633,0,0,1,3.425,1.473q1.441,1.473,1.44,5.25v14.149a5.487,5.487,0,0,0,.513,2.241,8.408,8.408,0,0,0,1.344,2.112,7.107,7.107,0,0,0,1.921,1.57,4.419,4.419,0,0,0,2.176.608h12.421a5.7,5.7,0,0,0,2.273-.513,7.812,7.812,0,0,0,2.144-1.376,7.583,7.583,0,0,0,1.569-1.953,4.429,4.429,0,0,0,.609-2.177V717.572a11.383,11.383,0,0,1,.288-2.625,5.943,5.943,0,0,1,.928-2.113,4.4,4.4,0,0,1,1.7-1.408,7.331,7.331,0,0,1,5.763.16,3.945,3.945,0,0,1,1.6,1.7,6.422,6.422,0,0,1,.575,2.24q.1,1.216.1,2.3v20.488h8.963V717.892a8.719,8.719,0,0,1,1.344-4.994q1.346-1.983,4.738-1.985a4.633,4.633,0,0,1,3.425,1.473q1.441,1.473,1.441,5.25v14.149a5.485,5.485,0,0,0,.512,2.241,8.409,8.409,0,0,0,1.344,2.112,7.107,7.107,0,0,0,1.921,1.57,4.423,4.423,0,0,0,2.177.608"/><path class="a" d="M74.814,687.507h1.579l4.118,9.48,4.118-9.48h1.5v11.3H85.075v-9.959h-.032l-4.309,9.959h-.462L75.9,688.847h-.032v9.959H74.814Z"/><path class="a" d="M97.141,694.481c0,2.41-1.037,4.612-4.118,4.612s-4.117-2.2-4.117-4.612v-6.974h1.053v6.7c0,1.612.431,3.926,3.064,3.926s3.065-2.314,3.065-3.926v-6.7h1.053Z"/><path class="a" d="M100.03,687.507h1.356l6.879,9.895h.032v-9.895h1.053v11.3h-1.356l-6.879-9.9h-.032v9.9H100.03Z"/><path class="a" d="M112.3,687.507H115.8c5.873,0,6.112,4.82,6.112,5.649s-.239,5.65-6.112,5.65H112.3Zm1.053,10.341h2.171c3,0,5.33-1.452,5.33-4.692s-2.33-4.692-5.33-4.692h-2.171Z"/><path class="a" d="M129.38,687.22a5.937,5.937,0,1,1-5.841,5.936A5.656,5.656,0,0,1,129.38,687.22Zm0,10.916a4.983,4.983,0,1,0-4.788-4.98A4.668,4.668,0,0,0,129.38,698.136Z"/></g></svg>